#!OML:ASF H:\Male1\Project 1\Capture day 1\Session 1\Male1.ASF
:FULLY-SPECIFIED
:DEGREES
397
root 16.6317 15.4688 -2.53378 181.802 -77.3806 -183.74
lowerback 7.62827 1.11867 0.15686
upperback 2.71248 1.4381 1.09802
thorax -1.49906 0.679065 0.916836
lowerneck -9.97025 3.44287 5.92323
upperneck 7.44976 4.80887 -11.0637
head 4.28081 1.91203 -4.063
rclavicle 2.88238e-015 -3.97569e-016
rhumerus -39.5354 17.0415 -85.6146
rradius 40.9281
rwrist -24.4889
rhand -16.4567 2.19176
rfingers 7.12502
rthumb 9.75954 -27.5621
lclavicle 2.88238e-015 -3.97569e-016
lhumerus 29.3473 16.8159 11.2739
lradius 47.1945
lwrist -1.02766
lhand -48.8564 19.5418
lfingers 7.12502
lthumb -21.4911 48.3696
rfemur -3.89749 16.3703 20.5939
rtibia 23.9724
rfoot -27.8021 -29.4919
rtoes -19.4635
lfemur -1.19795 -14.127 -21.2854
ltibia 21.7691
lfoot -20.9039 23.9652
ltoes -5.97388
398
root 16.6334 15.4639 -2.60551 181.339 -77.2964 -183.323
lowerback 7.67421 1.03099 0.406273
upperback 2.66129 1.34175 1.11322
thorax -1.57028 0.631877 0.799689
lowerneck -10.1068 3.34738 5.97759
upperneck 7.5721 4.66191 -10.8808
head 4.32379 1.84664 -4.02461
rclavicle -1.03368e-014 -7.95139e-015
rhumerus -39.9623 17.2471 -85.8104
rradius 41.3118
rwrist -24.6945
rhand -16.087 1.95439
rfingers 7.12502
rthumb 10.1163 -27.7824
lclavicle -1.03368e-014 -7.95139e-015
lhumerus 26.6718 14.4212 10.6801
lradius 49.1563
lwrist -0.839805
lhand -49.2873 19.4247
lfingers 7.12502
lthumb -21.9049 48.2047
rfemur -3.86378 16.3883 21.0188
rtibia 24.1151
rfoot -27.759 -29.5369
rtoes -20.0975
lfemur -1.06325 -14.2334 -20.9612
ltibia 21.7623
lfoot -21.0193 24.1109
ltoes -5.95456
399
root 16.6329 15.4586 -2.67643 181.887 -77.2104 -183.961
lowerback 7.67421 1.05911 0.464791
upperback 2.6233 1.38407 1.02643
thorax -1.60637 0.654198 0.673318
lowerneck -10.1553 3.13422 6.15629
upperneck 7.62381 4.34799 -10.8387
head 4.32241 1.69925 -4.06445
rclavicle -5.51627e-015 -7.55382e-015
rhumerus -40.4487 17.2358 -85.9797
rradius 41.6346
rwrist -24.9188
rhand -16.0708 1.67929
rfingers 7.12502
rthumb 10.1319 -28.0568
lclavicle -5.51627e-015 -7.55382e-015
lhumerus 24.7667 11.861 10.472
lradius 51.0702
lwrist -0.931605
lhand -49.6933 18.9212
lfingers 7.12502
lthumb -22.2947 47.6551
rfemur -3.78894 16.3072 21.1643
rtibia 24.2249
rfoot -27.5196 -29.5538
rtoes -21.0121
lfemur -0.90332 -14.3481 -20.9186
ltibia 21.7732
lfoot -21.14 24.3235
ltoes -6.24254
400
root 16.6321 15.4525 -2.74543 183.351 -77.3548 -185.5
lowerback 7.57831 1.04854 0.382344
upperback 2.59306 1.36352 0.876902
thorax -1.58261 0.645674 0.568855
lowerneck -10.1622 2.90133 6.29993
upperneck 7.61706 4.01049 -10.8169
head 4.29364 1.54018 -4.10655
rclavicle -2.68359e-015 -2.38542e-015
rhumerus -40.8837 17.1963 -86.1603
rradius 41.7942
rwrist -25.0654
rhand -16.2113 1.59636
rfingers 7.12502
rthumb 9.99628 -28.1463
lclavicle -2.68359e-015 -2.38542e-015
lhumerus 23.2738 9.20952 10.3979
lradius 53.1294
lwrist -1.16492
lhand -50.166 18.1229
lfingers 7.12502
lthumb -22.7484 46.8017
rfemur -3.67453 16.0262 21.0607
rtibia 24.26
rfoot -27.631 -29.3105
rtoes -20.6848
lfemur -0.859635 -14.4141 -21.0466
ltibia 21.8471
lfoot -21.0779 24.4044
ltoes -7.1488
401
root 16.6354 15.4467 -2.8149 183.332 -77.6502 -185.56
lowerback 7.50832 0.955119 0.584338
upperback 2.57735 1.25398 0.847318
thorax -1.55407 0.592034 0.435705
lowerneck -10.0284 2.76626 6.16056
upperneck 7.44725 3.81227 -10.5065
head 4.19254 1.4646 -3.99995
rclavicle 1.58531e-014 -7.95139e-016
rhumerus -41.2411 17.3368 -86.3683
rradius 41.797
rwrist -25.072
rhand -16.3357 1.80844
rfingers 7.12502
rthumb 9.87631 -27.9399
lclavicle 1.58531e-014 -7.95139e-016
lhumerus 22.1021 6.5987 10.3846
lradius 55.224
lwrist -1.70456
lhand -50.6795 17.3486
lfingers 7.12502
lthumb -23.2411 45.9661
rfemur -3.49721 15.8787 21.3881
rtibia 24.3178
rfoot -28.1556 -29.1102
rtoes -19.5782
lfemur -0.810038 -14.438 -20.7665
ltibia 21.9105
lfoot -20.9573 24.2614
ltoes -7.51993
402
root 16.6422 15.4416 -2.8858 182.619 -77.887 -184.969
lowerback 7.53227 0.904828 0.832924
upperback 2.58895 1.20473 0.871001
thorax -1.55037 0.567452 0.324639
lowerneck -9.97618 2.68377 5.95987
upperneck 7.32874 3.69034 -10.1439
head 4.12592 1.42392 -3.86111
rclavicle -6.21202e-015 -2.0276e-014
rhumerus -41.5346 17.383 -86.5214
rradius 41.7833
rwrist -24.8194
rhand -16.4397 1.92514
rfingers 7.12502
rthumb 9.77592 -27.8279
lclavicle -6.21202e-015 -2.0276e-014
lhumerus 21.5663 4.10345 10.5047
lradius 57.1667
lwrist -2.46745
lhand -51.1838 16.5721
lfingers 7.12502
lthumb -23.7249 45.1277
rfemur -3.27512 15.8343 21.9166
rtibia 24.3453
rfoot -28.4693 -29.1365
rtoes -19.0694
lfemur -0.725633 -14.426 -20.3407
ltibia 22.0198
lfoot -20.8054 24.1319
ltoes -7.84632
403
root 16.651 15.4384 -2.9542 183.387 -78.1849 -185.809
lowerback 7.47362 0.865066 0.712001
upperback 2.62177 1.14177 0.871584
thorax -1.48654 0.535898 0.399716
lowerneck -10.1226 2.6185 5.81396
upperneck 7.38597 3.60977 -10.0235
head 4.15595 1.38184 -3.80425
rclavicle 3.74212e-014 9.93923e-015
rhumerus -41.6435 17.4225 -86.5148
rradius 41.7215
rwrist -24.5903
rhand -16.5111 1.69883
rfingers 7.12502
rthumb 9.70706 -28.0575
lclavicle 3.74212e-014 9.93923e-015
lhumerus 21.5361 1.80015 10.6426
lradius 59.0175
lwrist -3.3172
lhand -51.4912 15.3897
lfingers 7.12502
lthumb -24.0197 43.9067
rfemur -3.12769 15.5503 22.0504
rtibia 24.272
rfoot -28.463 -29.226
rtoes -19.2252
lfemur -0.827929 -14.4781 -20.2343
ltibia 22.2465
lfoot -20.5597 24.1389
ltoes -9.00698
404
root 16.6629 15.4351 -3.01907 183.836 -78.5796 -186.276
lowerback 7.3378 0.788894 0.632157
upperback 2.68951 1.03238 0.950988
thorax -1.34422 0.480522 0.537944
lowerneck -10.3733 2.59339 5.68949
upperneck 7.53783 3.59989 -10.0927
head 4.24254 1.3588 -3.80542
rclavicle -2.96686e-014 7.55382e-015
rhumerus -41.5573 17.6449 -86.413
rradius 41.5447
rwrist -24.6071
rhand -16.5417 1.55951
rfingers 7.12502
rthumb 9.67752 -28.1982
lclavicle -2.96686e-014 7.55382e-015
lhumerus 21.8556 -0.251616 10.705
lradius 60.7321
lwrist -4.58583
lhand -51.5732 14.1533
lfingers 7.12502
lthumb -24.0983 42.6599
rfemur -3.02404 15.165 22.2396
rtibia 24.1897
rfoot -28.6505 -29.1748
rtoes -18.9127
lfemur -1.04006 -14.5811 -20.0116
ltibia 22.49
lfoot -20.3873 24.048
ltoes -9.9789
405
root 16.6771 15.4294 -3.08131 182.793 -79.0178 -185.322
lowerback 7.35117 0.709713 0.912454
upperback 2.79812 0.942147 1.0603
thorax -1.2363 0.434243 0.501291
lowerneck -10.6735 2.59723 5.6693
upperneck 7.64391 3.62311 -10.3043
head 4.33124 1.34581 -3.86595
rclavicle 2.17669e-014 1.31198e-014
rhumerus -41.3327 17.7537 -86.3166
rradius 41.2375
rwrist -24.5743
rhand -16.3689 1.25139
rfingers 7.12502
rthumb 9.84425 -28.4985
lclavicle 2.17669e-014 1.31198e-014
lhumerus 22.7459 -1.91091 10.727
lradius 62.5291
lwrist -5.19248
lhand -49.95 14.852
lfingers 7.12502
lthumb -22.5411 43.5562
rfemur -2.83714 14.8438 22.7758
rtibia 24.1958
rfoot -29.1848 -28.9909
rtoes -17.7325
lfemur -1.13137 -14.622 -19.4821
ltibia 22.6643
lfoot -20.285 23.7421
ltoes -10.3002
406
root 16.6922 15.4244 -3.13799 182.294 -79.5008 -184.939
lowerback 7.44916 0.657942 1.18429
upperback 2.83653 0.891276 1.08515
thorax -1.24677 0.408844 0.377741
lowerneck -10.7196 2.61026 5.76371
upperneck 7.66508 3.65659 -10.6416
head 4.35737 1.34208 -3.98546
rclavicle -1.88348e-014 -3.97569e-015
rhumerus -41.2347 17.6979 -86.2775
rradius 40.9123
rwrist -24.4752
rhand -16.1544 0.53108
rfingers 7.12502
rthumb 10.0512 -29.2089
lclavicle -1.88348e-014 -3.97569e-015
lhumerus 24.1789 -3.54901 10.5605
lradius 64.1707
lwrist -6.01396
lhand -49.8895 13.4658
lfingers 7.12502
lthumb -22.483 42.177
rfemur -2.67408 14.3832 23.1484
rtibia 24.2328
rfoot -29.4559 -28.9119
rtoes -17.2869
lfemur -1.22096 -14.6705 -19.1058
ltibia 22.8452
lfoot -20.2203 23.393
ltoes -10.2646
407
root 16.7117 15.4211 -3.1897 183.417 -79.9871 -186.125
lowerback 7.49022 0.628386 1.19236
upperback 2.83502 0.853121 1.0291
thorax -1.27016 0.390297 0.318271
lowerneck -10.4751 2.65682 5.79259
upperneck 7.51131 3.73208 -10.876
head 4.28215 1.37528 -4.05897
rclavicle -3.27995e-015 -6.36111e-015
rhumerus -41.1497 17.7462 -86.3116
rradius 40.5814
rwrist -24.5702
rhand -16.3074 0.154592
rfingers 7.12502
rthumb 9.9036 -29.5925
lclavicle -3.27995e-015 -6.36111e-015
lhumerus 26.0527 -4.99003 10.205
lradius 65.6636
lwrist -6.81747
lhand -50.7226 11.7313
lfingers 7.12502
lthumb -23.2825 40.3436
rfemur -2.64287 13.7817 23.1379
rtibia 24.2495
rfoot -29.3494 -28.933
rtoes -17.6259
lfemur -1.45293 -14.7464 -19.0447
ltibia 23.0864
lfoot -20.1123 23.1037
ltoes -10.3118
